# xmcd
#
# Track frame offsets:
#	150
#	10486
#	29080
#	55551
#	73621
#	104590
#	129891
#	175170
#	225656
#
# Disc length: 3376 seconds
#
# Revision: 0
# Processed by: cddbd v1.5.2PL0 Copyright (c) Steve Scherf et al.
# Submitted via: EasyCDDAExtractor 9.0.0.1
#
DISCID=730d2e09
DTITLE=Whitesnake - Hammersmith Odeon London 03-03-79 Disc 1
DYEAR=1979
DGENRE=Hard Rock
TTITLE0=Introduction
TTITLE1=Come On
TTITLE2=Might Just Take Your Life
TTITLE3=The Time Is Right For Love
TTITLE4=Ain't No Love In The Heart Of The City
TTITLE5=Trouble
TTITLE6=Steal Away
TTITLE7=Mistreated
TTITLE8=Belgian Tom's Hat Trick
EXTD=
EXTT0=
EXTT1=
EXTT2=
EXTT3=
EXTT4=
EXTT5=
EXTT6=
EXTT7=
EXTT8=
PLAYORDER=
